<?xml version="1.0" encoding="iso-8859-1"?>
<!-- Generator: Adobe Illustrator 16.0.0, SVG Export Plug-In . SVG Version: 6.00 Build 0)  -->
<!DOCTYPE svg PUBLIC "-//W3C//DTD SVG 1.1//EN" "http://www.w3.org/Graphics/SVG/1.1/DTD/svg11.dtd">
<svg xmlns="http://www.w3.org/2000/svg" xmlns:xlink="http://www.w3.org/1999/xlink" version="1.1" id="Capa_1" x="0px" y="0px" width="512px" height="512px" viewBox="0 0 92.833 92.833" style="enable-background:new 0 0 92.833 92.833;" xml:space="preserve">
<g>
	<g>
		<path d="M89.834,1.75H3c-1.654,0-3,1.346-3,3v13.334c0,1.654,1.346,3,3,3h86.833c1.653,0,3-1.346,3-3V4.75    C92.834,3.096,91.488,1.75,89.834,1.75z" fill="#222222"/>
		<path d="M89.834,36.75H3c-1.654,0-3,1.346-3,3v13.334c0,1.654,1.346,3,3,3h86.833c1.653,0,3-1.346,3-3V39.75    C92.834,38.096,91.488,36.75,89.834,36.75z" fill="#222222"/>
		<path d="M89.834,71.75H3c-1.654,0-3,1.346-3,3v13.334c0,1.654,1.346,3,3,3h86.833c1.653,0,3-1.346,3-3V74.75    C92.834,73.095,91.488,71.75,89.834,71.75z" fill="#222222"/>
	</g>
</g>
<g>
</g>
<g>
</g>
<g>
</g>
<g>
</g>
<g>
</g>
<g>
</g>
<g>
</g>
<g>
</g>
<g>
</g>
<g>
</g>
<g>
</g>
<g>
</g>
<g>
</g>
<g>
</g>
<g>
</g>
</svg>
